<svg width="1773" height="851" viewBox="0 0 1773 851" fill="none" xmlns="http://www.w3.org/2000/svg">
<path d="M16 65C16 29.1015 45.1015 0 81 0H1708C1743.9 0 1773 29.1015 1773 65V851H16V65Z" fill="#141414"/>
<rect x="16" y="261" width="1757" height="590" fill="#121212"/>
<path d="M76 83C76 69.1929 87.1929 58 101 58H1689C1702.81 58 1714 69.1929 1714 83V851H76V83Z" fill="#212121"/>
<path d="M76 83C76 69.1929 87.1929 58 101 58H1689C1702.81 58 1714 69.1929 1714 83V263H76V83Z" fill="#B0B0B0"/>
<path d="M85 91C85 77.1929 96.1929 66 110 66H1680C1693.81 66 1705 77.1929 1705 91V255H85V91Z" fill="#212121"/>
<path d="M325 123H320.5V70L318 66H327.5L325 70V123Z" fill="#B0B0B0"/>
<path d="M558 123H553.5V70L551 66H560.5L558 70V123Z" fill="#B0B0B0"/>
<path d="M702 123H697.5V70L695 66H704.5L702 70V123Z" fill="#B0B0B0"/>
<path d="M846 123H841.5V70L839 66H848.5L846 70V123Z" fill="#B0B0B0"/>
<g filter="url(#filter0_d_11_528)">
<circle cx="322.467" cy="163.899" r="46.173" fill="#171717"/>
</g>
<g filter="url(#filter1_d_11_528)">
<circle cx="555.467" cy="163.899" r="46.173" fill="#171717"/>
</g>
<g filter="url(#filter2_d_11_528)">
<circle cx="699.467" cy="163.899" r="46.173" fill="#171717"/>
</g>
<g filter="url(#filter3_d_11_528)">
<circle cx="843.467" cy="163.899" r="46.173" fill="#171717"/>
</g>
<mask id="mask0_11_528" style="mask-type:alpha" maskUnits="userSpaceOnUse" x="76" y="263" width="1638" height="588">
<rect x="76" y="263" width="1638" height="588" fill="#D9D9D9"/>
</mask>
<g mask="url(#mask0_11_528)">
<rect x="113" y="1912" width="1651" height="4" transform="rotate(-90 113 1912)" fill="#414141" fill-opacity="0.8"/>
<rect x="92.0001" y="1912" width="1651" height="4" transform="rotate(-90 92.0001 1912)" fill="#414141" fill-opacity="0.8"/>
<rect x="134" y="1912" width="1651" height="4" transform="rotate(-90 134 1912)" fill="#414141" fill-opacity="0.8"/>
<rect x="78.0001" y="1912" width="1651" height="4" transform="rotate(-90 78.0001 1912)" fill="#414141" fill-opacity="0.8"/>
<rect x="120" y="1912" width="1651" height="4" transform="rotate(-90 120 1912)" fill="#414141" fill-opacity="0.8"/>
<rect x="99.0001" y="1912" width="1651" height="4" transform="rotate(-90 99.0001 1912)" fill="#414141" fill-opacity="0.8"/>
<rect x="141" y="1912" width="1651" height="4" transform="rotate(-90 141 1912)" fill="#414141" fill-opacity="0.8"/>
<rect x="85.0001" y="1912" width="1651" height="4" transform="rotate(-90 85.0001 1912)" fill="#414141" fill-opacity="0.8"/>
<rect x="127" y="1912" width="1651" height="4" transform="rotate(-90 127 1912)" fill="#414141" fill-opacity="0.8"/>
<rect x="106" y="1912" width="1651" height="4" transform="rotate(-90 106 1912)" fill="#414141" fill-opacity="0.8"/>
<rect x="148" y="1912" width="1651" height="4" transform="rotate(-90 148 1912)" fill="#414141" fill-opacity="0.8"/>
<rect x="407" y="1912" width="1651" height="4" transform="rotate(-90 407 1912)" fill="#414141" fill-opacity="0.8"/>
<rect x="449" y="1912" width="1651" height="4" transform="rotate(-90 449 1912)" fill="#414141" fill-opacity="0.8"/>
<rect x="428" y="1912" width="1651" height="4" transform="rotate(-90 428 1912)" fill="#414141" fill-opacity="0.8"/>
<rect x="470" y="1912" width="1651" height="4" transform="rotate(-90 470 1912)" fill="#414141" fill-opacity="0.8"/>
<rect x="414" y="1912" width="1651" height="4" transform="rotate(-90 414 1912)" fill="#414141" fill-opacity="0.8"/>
<rect x="456" y="1912" width="1651" height="4" transform="rotate(-90 456 1912)" fill="#414141" fill-opacity="0.8"/>
<rect x="435" y="1912" width="1651" height="4" transform="rotate(-90 435 1912)" fill="#414141" fill-opacity="0.8"/>
<rect x="477" y="1912" width="1651" height="4" transform="rotate(-90 477 1912)" fill="#414141" fill-opacity="0.8"/>
<rect x="421" y="1912" width="1651" height="4" transform="rotate(-90 421 1912)" fill="#414141" fill-opacity="0.8"/>
<rect x="463" y="1912" width="1651" height="4" transform="rotate(-90 463 1912)" fill="#414141" fill-opacity="0.8"/>
<rect x="442" y="1912" width="1651" height="4" transform="rotate(-90 442 1912)" fill="#414141" fill-opacity="0.8"/>
<rect x="484" y="1912" width="1651" height="4" transform="rotate(-90 484 1912)" fill="#414141" fill-opacity="0.8"/>
<rect x="1079" y="1912" width="1651" height="4" transform="rotate(-90 1079 1912)" fill="#414141" fill-opacity="0.8"/>
<rect x="1121" y="1912" width="1651" height="4" transform="rotate(-90 1121 1912)" fill="#414141" fill-opacity="0.8"/>
<rect x="1100" y="1912" width="1651" height="4" transform="rotate(-90 1100 1912)" fill="#414141" fill-opacity="0.8"/>
<rect x="1142" y="1912" width="1651" height="4" transform="rotate(-90 1142 1912)" fill="#414141" fill-opacity="0.8"/>
<rect x="1086" y="1912" width="1651" height="4" transform="rotate(-90 1086 1912)" fill="#414141" fill-opacity="0.8"/>
<rect x="1128" y="1912" width="1651" height="4" transform="rotate(-90 1128 1912)" fill="#414141" fill-opacity="0.8"/>
<rect x="1107" y="1912" width="1651" height="4" transform="rotate(-90 1107 1912)" fill="#414141" fill-opacity="0.8"/>
<rect x="1149" y="1912" width="1651" height="4" transform="rotate(-90 1149 1912)" fill="#414141" fill-opacity="0.8"/>
<rect x="1093" y="1912" width="1651" height="4" transform="rotate(-90 1093 1912)" fill="#414141" fill-opacity="0.8"/>
<rect x="1135" y="1912" width="1651" height="4" transform="rotate(-90 1135 1912)" fill="#414141" fill-opacity="0.8"/>
<rect x="1114" y="1912" width="1651" height="4" transform="rotate(-90 1114 1912)" fill="#414141" fill-opacity="0.8"/>
<rect x="1156" y="1912" width="1651" height="4" transform="rotate(-90 1156 1912)" fill="#414141" fill-opacity="0.8"/>
<rect x="743" y="1912" width="1651" height="4" transform="rotate(-90 743 1912)" fill="#414141" fill-opacity="0.8"/>
<rect x="785" y="1912" width="1651" height="4" transform="rotate(-90 785 1912)" fill="#414141" fill-opacity="0.8"/>
<rect x="764" y="1912" width="1651" height="4" transform="rotate(-90 764 1912)" fill="#414141" fill-opacity="0.8"/>
<rect x="806" y="1912" width="1651" height="4" transform="rotate(-90 806 1912)" fill="#414141" fill-opacity="0.8"/>
<rect x="750" y="1912" width="1651" height="4" transform="rotate(-90 750 1912)" fill="#414141" fill-opacity="0.8"/>
<rect x="792" y="1912" width="1651" height="4" transform="rotate(-90 792 1912)" fill="#414141" fill-opacity="0.8"/>
<rect x="771" y="1912" width="1651" height="4" transform="rotate(-90 771 1912)" fill="#414141" fill-opacity="0.8"/>
<rect x="813" y="1912" width="1651" height="4" transform="rotate(-90 813 1912)" fill="#414141" fill-opacity="0.8"/>
<rect x="757" y="1912" width="1651" height="4" transform="rotate(-90 757 1912)" fill="#414141" fill-opacity="0.8"/>
<rect x="799" y="1912" width="1651" height="4" transform="rotate(-90 799 1912)" fill="#414141" fill-opacity="0.8"/>
<rect x="778" y="1912" width="1651" height="4" transform="rotate(-90 778 1912)" fill="#414141" fill-opacity="0.8"/>
<rect x="820" y="1912" width="1651" height="4" transform="rotate(-90 820 1912)" fill="#414141" fill-opacity="0.8"/>
<rect x="1415" y="1912" width="1651" height="4" transform="rotate(-90 1415 1912)" fill="#414141" fill-opacity="0.8"/>
<rect x="1457" y="1912" width="1651" height="4" transform="rotate(-90 1457 1912)" fill="#414141" fill-opacity="0.8"/>
<rect x="1436" y="1912" width="1651" height="4" transform="rotate(-90 1436 1912)" fill="#414141" fill-opacity="0.8"/>
<rect x="1478" y="1912" width="1651" height="4" transform="rotate(-90 1478 1912)" fill="#414141" fill-opacity="0.8"/>
<rect x="1422" y="1912" width="1651" height="4" transform="rotate(-90 1422 1912)" fill="#414141" fill-opacity="0.8"/>
<rect x="1464" y="1912" width="1651" height="4" transform="rotate(-90 1464 1912)" fill="#414141" fill-opacity="0.8"/>
<rect x="1443" y="1912" width="1651" height="4" transform="rotate(-90 1443 1912)" fill="#414141" fill-opacity="0.8"/>
<rect x="1485" y="1912" width="1651" height="4" transform="rotate(-90 1485 1912)" fill="#414141" fill-opacity="0.8"/>
<rect x="1429" y="1912" width="1651" height="4" transform="rotate(-90 1429 1912)" fill="#414141" fill-opacity="0.8"/>
<rect x="1471" y="1912" width="1651" height="4" transform="rotate(-90 1471 1912)" fill="#414141" fill-opacity="0.8"/>
<rect x="1450" y="1912" width="1651" height="4" transform="rotate(-90 1450 1912)" fill="#414141" fill-opacity="0.8"/>
<rect x="1492" y="1912" width="1651" height="4" transform="rotate(-90 1492 1912)" fill="#414141" fill-opacity="0.8"/>
<rect x="239" y="1912" width="1651" height="4" transform="rotate(-90 239 1912)" fill="#414141" fill-opacity="0.8"/>
<rect x="281" y="1912" width="1651" height="4" transform="rotate(-90 281 1912)" fill="#414141" fill-opacity="0.8"/>
<rect x="260" y="1912" width="1651" height="4" transform="rotate(-90 260 1912)" fill="#414141" fill-opacity="0.8"/>
<rect x="302" y="1912" width="1651" height="4" transform="rotate(-90 302 1912)" fill="#414141" fill-opacity="0.8"/>
<rect x="246" y="1912" width="1651" height="4" transform="rotate(-90 246 1912)" fill="#414141" fill-opacity="0.8"/>
<rect x="288" y="1912" width="1651" height="4" transform="rotate(-90 288 1912)" fill="#414141" fill-opacity="0.8"/>
<rect x="267" y="1912" width="1651" height="4" transform="rotate(-90 267 1912)" fill="#414141" fill-opacity="0.8"/>
<rect x="309" y="1912" width="1651" height="4" transform="rotate(-90 309 1912)" fill="#414141" fill-opacity="0.8"/>
<rect x="253" y="1912" width="1651" height="4" transform="rotate(-90 253 1912)" fill="#414141" fill-opacity="0.8"/>
<rect x="295" y="1912" width="1651" height="4" transform="rotate(-90 295 1912)" fill="#414141" fill-opacity="0.8"/>
<rect x="274" y="1912" width="1651" height="4" transform="rotate(-90 274 1912)" fill="#414141" fill-opacity="0.8"/>
<rect x="316" y="1912" width="1651" height="4" transform="rotate(-90 316 1912)" fill="#414141" fill-opacity="0.8"/>
<rect x="575" y="1912" width="1651" height="4" transform="rotate(-90 575 1912)" fill="#414141" fill-opacity="0.8"/>
<rect x="617" y="1912" width="1651" height="4" transform="rotate(-90 617 1912)" fill="#414141" fill-opacity="0.8"/>
<rect x="596" y="1912" width="1651" height="4" transform="rotate(-90 596 1912)" fill="#414141" fill-opacity="0.8"/>
<rect x="638" y="1912" width="1651" height="4" transform="rotate(-90 638 1912)" fill="#414141" fill-opacity="0.8"/>
<rect x="582" y="1912" width="1651" height="4" transform="rotate(-90 582 1912)" fill="#414141" fill-opacity="0.8"/>
<rect x="624" y="1912" width="1651" height="4" transform="rotate(-90 624 1912)" fill="#414141" fill-opacity="0.8"/>
<rect x="603" y="1912" width="1651" height="4" transform="rotate(-90 603 1912)" fill="#414141" fill-opacity="0.8"/>
<rect x="645" y="1912" width="1651" height="4" transform="rotate(-90 645 1912)" fill="#414141" fill-opacity="0.8"/>
<rect x="589" y="1912" width="1651" height="4" transform="rotate(-90 589 1912)" fill="#414141" fill-opacity="0.8"/>
<rect x="631" y="1912" width="1651" height="4" transform="rotate(-90 631 1912)" fill="#414141" fill-opacity="0.8"/>
<rect x="610" y="1912" width="1651" height="4" transform="rotate(-90 610 1912)" fill="#414141" fill-opacity="0.8"/>
<rect x="652" y="1912" width="1651" height="4" transform="rotate(-90 652 1912)" fill="#414141" fill-opacity="0.8"/>
<rect x="1247" y="1912" width="1651" height="4" transform="rotate(-90 1247 1912)" fill="#414141" fill-opacity="0.8"/>
<rect x="1289" y="1912" width="1651" height="4" transform="rotate(-90 1289 1912)" fill="#414141" fill-opacity="0.8"/>
<rect x="1268" y="1912" width="1651" height="4" transform="rotate(-90 1268 1912)" fill="#414141" fill-opacity="0.8"/>
<rect x="1310" y="1912" width="1651" height="4" transform="rotate(-90 1310 1912)" fill="#414141" fill-opacity="0.8"/>
<rect x="1254" y="1912" width="1651" height="4" transform="rotate(-90 1254 1912)" fill="#414141" fill-opacity="0.8"/>
<rect x="1296" y="1912" width="1651" height="4" transform="rotate(-90 1296 1912)" fill="#414141" fill-opacity="0.8"/>
<rect x="1275" y="1912" width="1651" height="4" transform="rotate(-90 1275 1912)" fill="#414141" fill-opacity="0.8"/>
<rect x="1317" y="1912" width="1651" height="4" transform="rotate(-90 1317 1912)" fill="#414141" fill-opacity="0.8"/>
<rect x="1261" y="1912" width="1651" height="4" transform="rotate(-90 1261 1912)" fill="#414141" fill-opacity="0.8"/>
<rect x="1303" y="1912" width="1651" height="4" transform="rotate(-90 1303 1912)" fill="#414141" fill-opacity="0.8"/>
<rect x="1282" y="1912" width="1651" height="4" transform="rotate(-90 1282 1912)" fill="#414141" fill-opacity="0.8"/>
<rect x="1324" y="1912" width="1651" height="4" transform="rotate(-90 1324 1912)" fill="#414141" fill-opacity="0.8"/>
<rect x="911" y="1912" width="1651" height="4" transform="rotate(-90 911 1912)" fill="#414141" fill-opacity="0.8"/>
<rect x="953" y="1912" width="1651" height="4" transform="rotate(-90 953 1912)" fill="#414141" fill-opacity="0.8"/>
<rect x="932" y="1912" width="1651" height="4" transform="rotate(-90 932 1912)" fill="#414141" fill-opacity="0.8"/>
<rect x="974" y="1912" width="1651" height="4" transform="rotate(-90 974 1912)" fill="#414141" fill-opacity="0.8"/>
<rect x="918" y="1912" width="1651" height="4" transform="rotate(-90 918 1912)" fill="#414141" fill-opacity="0.8"/>
<rect x="960" y="1912" width="1651" height="4" transform="rotate(-90 960 1912)" fill="#414141" fill-opacity="0.8"/>
<rect x="939" y="1912" width="1651" height="4" transform="rotate(-90 939 1912)" fill="#414141" fill-opacity="0.8"/>
<rect x="981" y="1912" width="1651" height="4" transform="rotate(-90 981 1912)" fill="#414141" fill-opacity="0.8"/>
<rect x="925" y="1912" width="1651" height="4" transform="rotate(-90 925 1912)" fill="#414141" fill-opacity="0.8"/>
<rect x="967" y="1912" width="1651" height="4" transform="rotate(-90 967 1912)" fill="#414141" fill-opacity="0.8"/>
<rect x="946" y="1912" width="1651" height="4" transform="rotate(-90 946 1912)" fill="#414141" fill-opacity="0.8"/>
<rect x="988" y="1912" width="1651" height="4" transform="rotate(-90 988 1912)" fill="#414141" fill-opacity="0.8"/>
<rect x="1583" y="1912" width="1651" height="4" transform="rotate(-90 1583 1912)" fill="#414141" fill-opacity="0.8"/>
<rect x="1625" y="1912" width="1651" height="4" transform="rotate(-90 1625 1912)" fill="#414141" fill-opacity="0.8"/>
<rect x="1604" y="1912" width="1651" height="4" transform="rotate(-90 1604 1912)" fill="#414141" fill-opacity="0.8"/>
<rect x="1646" y="1912" width="1651" height="4" transform="rotate(-90 1646 1912)" fill="#414141" fill-opacity="0.8"/>
<rect x="1590" y="1912" width="1651" height="4" transform="rotate(-90 1590 1912)" fill="#414141" fill-opacity="0.8"/>
<rect x="1632" y="1912" width="1651" height="4" transform="rotate(-90 1632 1912)" fill="#414141" fill-opacity="0.8"/>
<rect x="1611" y="1912" width="1651" height="4" transform="rotate(-90 1611 1912)" fill="#414141" fill-opacity="0.8"/>
<rect x="1653" y="1912" width="1651" height="4" transform="rotate(-90 1653 1912)" fill="#414141" fill-opacity="0.8"/>
<rect x="1597" y="1912" width="1651" height="4" transform="rotate(-90 1597 1912)" fill="#414141" fill-opacity="0.8"/>
<rect x="1639" y="1912" width="1651" height="4" transform="rotate(-90 1639 1912)" fill="#414141" fill-opacity="0.8"/>
<rect x="1618" y="1912" width="1651" height="4" transform="rotate(-90 1618 1912)" fill="#414141" fill-opacity="0.8"/>
<rect x="1660" y="1912" width="1651" height="4" transform="rotate(-90 1660 1912)" fill="#414141" fill-opacity="0.8"/>
<rect x="155" y="1912" width="1651" height="4" transform="rotate(-90 155 1912)" fill="#414141" fill-opacity="0.8"/>
<rect x="197" y="1912" width="1651" height="4" transform="rotate(-90 197 1912)" fill="#414141" fill-opacity="0.8"/>
<rect x="176" y="1912" width="1651" height="4" transform="rotate(-90 176 1912)" fill="#414141" fill-opacity="0.8"/>
<rect x="218" y="1912" width="1651" height="4" transform="rotate(-90 218 1912)" fill="#414141" fill-opacity="0.8"/>
<rect x="162" y="1912" width="1651" height="4" transform="rotate(-90 162 1912)" fill="#414141" fill-opacity="0.8"/>
<rect x="204" y="1912" width="1651" height="4" transform="rotate(-90 204 1912)" fill="#414141" fill-opacity="0.8"/>
<rect x="183" y="1912" width="1651" height="4" transform="rotate(-90 183 1912)" fill="#414141" fill-opacity="0.8"/>
<rect x="225" y="1912" width="1651" height="4" transform="rotate(-90 225 1912)" fill="#414141" fill-opacity="0.8"/>
<rect x="169" y="1912" width="1651" height="4" transform="rotate(-90 169 1912)" fill="#414141" fill-opacity="0.8"/>
<rect x="211" y="1912" width="1651" height="4" transform="rotate(-90 211 1912)" fill="#414141" fill-opacity="0.8"/>
<rect x="190" y="1912" width="1651" height="4" transform="rotate(-90 190 1912)" fill="#414141" fill-opacity="0.8"/>
<rect x="232" y="1912" width="1651" height="4" transform="rotate(-90 232 1912)" fill="#414141" fill-opacity="0.8"/>
<rect x="491" y="1912" width="1651" height="4" transform="rotate(-90 491 1912)" fill="#414141" fill-opacity="0.8"/>
<rect x="533" y="1912" width="1651" height="4" transform="rotate(-90 533 1912)" fill="#414141" fill-opacity="0.8"/>
<rect x="512" y="1912" width="1651" height="4" transform="rotate(-90 512 1912)" fill="#414141" fill-opacity="0.8"/>
<rect x="554" y="1912" width="1651" height="4" transform="rotate(-90 554 1912)" fill="#414141" fill-opacity="0.8"/>
<rect x="498" y="1912" width="1651" height="4" transform="rotate(-90 498 1912)" fill="#414141" fill-opacity="0.8"/>
<rect x="540" y="1912" width="1651" height="4" transform="rotate(-90 540 1912)" fill="#414141" fill-opacity="0.8"/>
<rect x="519" y="1912" width="1651" height="4" transform="rotate(-90 519 1912)" fill="#414141" fill-opacity="0.8"/>
<rect x="561" y="1912" width="1651" height="4" transform="rotate(-90 561 1912)" fill="#414141" fill-opacity="0.8"/>
<rect x="505" y="1912" width="1651" height="4" transform="rotate(-90 505 1912)" fill="#414141" fill-opacity="0.8"/>
<rect x="547" y="1912" width="1651" height="4" transform="rotate(-90 547 1912)" fill="#414141" fill-opacity="0.8"/>
<rect x="526" y="1912" width="1651" height="4" transform="rotate(-90 526 1912)" fill="#414141" fill-opacity="0.8"/>
<rect x="568" y="1912" width="1651" height="4" transform="rotate(-90 568 1912)" fill="#414141" fill-opacity="0.8"/>
<rect x="1163" y="1912" width="1651" height="4" transform="rotate(-90 1163 1912)" fill="#414141" fill-opacity="0.8"/>
<rect x="1205" y="1912" width="1651" height="4" transform="rotate(-90 1205 1912)" fill="#414141" fill-opacity="0.8"/>
<rect x="1184" y="1912" width="1651" height="4" transform="rotate(-90 1184 1912)" fill="#414141" fill-opacity="0.8"/>
<rect x="1226" y="1912" width="1651" height="4" transform="rotate(-90 1226 1912)" fill="#414141" fill-opacity="0.8"/>
<rect x="1170" y="1912" width="1651" height="4" transform="rotate(-90 1170 1912)" fill="#414141" fill-opacity="0.8"/>
<rect x="1212" y="1912" width="1651" height="4" transform="rotate(-90 1212 1912)" fill="#414141" fill-opacity="0.8"/>
<rect x="1191" y="1912" width="1651" height="4" transform="rotate(-90 1191 1912)" fill="#414141" fill-opacity="0.8"/>
<rect x="1233" y="1912" width="1651" height="4" transform="rotate(-90 1233 1912)" fill="#414141" fill-opacity="0.8"/>
<rect x="1177" y="1912" width="1651" height="4" transform="rotate(-90 1177 1912)" fill="#414141" fill-opacity="0.8"/>
<rect x="1219" y="1912" width="1651" height="4" transform="rotate(-90 1219 1912)" fill="#414141" fill-opacity="0.8"/>
<rect x="1198" y="1912" width="1651" height="4" transform="rotate(-90 1198 1912)" fill="#414141" fill-opacity="0.8"/>
<rect x="1240" y="1912" width="1651" height="4" transform="rotate(-90 1240 1912)" fill="#414141" fill-opacity="0.8"/>
<rect x="827" y="1912" width="1651" height="4" transform="rotate(-90 827 1912)" fill="#414141" fill-opacity="0.8"/>
<rect x="869" y="1912" width="1651" height="4" transform="rotate(-90 869 1912)" fill="#414141" fill-opacity="0.8"/>
<rect x="848" y="1912" width="1651" height="4" transform="rotate(-90 848 1912)" fill="#414141" fill-opacity="0.8"/>
<rect x="890" y="1912" width="1651" height="4" transform="rotate(-90 890 1912)" fill="#414141" fill-opacity="0.8"/>
<rect x="834" y="1912" width="1651" height="4" transform="rotate(-90 834 1912)" fill="#414141" fill-opacity="0.8"/>
<rect x="876" y="1912" width="1651" height="4" transform="rotate(-90 876 1912)" fill="#414141" fill-opacity="0.8"/>
<rect x="855" y="1912" width="1651" height="4" transform="rotate(-90 855 1912)" fill="#414141" fill-opacity="0.8"/>
<rect x="897" y="1912" width="1651" height="4" transform="rotate(-90 897 1912)" fill="#414141" fill-opacity="0.8"/>
<rect x="841" y="1912" width="1651" height="4" transform="rotate(-90 841 1912)" fill="#414141" fill-opacity="0.8"/>
<rect x="883" y="1912" width="1651" height="4" transform="rotate(-90 883 1912)" fill="#414141" fill-opacity="0.8"/>
<rect x="862" y="1912" width="1651" height="4" transform="rotate(-90 862 1912)" fill="#414141" fill-opacity="0.8"/>
<rect x="904" y="1912" width="1651" height="4" transform="rotate(-90 904 1912)" fill="#414141" fill-opacity="0.8"/>
<rect x="1499" y="1912" width="1651" height="4" transform="rotate(-90 1499 1912)" fill="#414141" fill-opacity="0.8"/>
<rect x="1541" y="1912" width="1651" height="4" transform="rotate(-90 1541 1912)" fill="#414141" fill-opacity="0.8"/>
<rect x="1520" y="1912" width="1651" height="4" transform="rotate(-90 1520 1912)" fill="#414141" fill-opacity="0.8"/>
<rect x="1562" y="1912" width="1651" height="4" transform="rotate(-90 1562 1912)" fill="#414141" fill-opacity="0.8"/>
<rect x="1506" y="1912" width="1651" height="4" transform="rotate(-90 1506 1912)" fill="#414141" fill-opacity="0.8"/>
<rect x="1548" y="1912" width="1651" height="4" transform="rotate(-90 1548 1912)" fill="#414141" fill-opacity="0.8"/>
<rect x="1527" y="1912" width="1651" height="4" transform="rotate(-90 1527 1912)" fill="#414141" fill-opacity="0.8"/>
<rect x="1569" y="1912" width="1651" height="4" transform="rotate(-90 1569 1912)" fill="#414141" fill-opacity="0.8"/>
<rect x="1513" y="1912" width="1651" height="4" transform="rotate(-90 1513 1912)" fill="#414141" fill-opacity="0.8"/>
<rect x="1555" y="1912" width="1651" height="4" transform="rotate(-90 1555 1912)" fill="#414141" fill-opacity="0.8"/>
<rect x="1534" y="1912" width="1651" height="4" transform="rotate(-90 1534 1912)" fill="#414141" fill-opacity="0.8"/>
<rect x="1576" y="1912" width="1651" height="4" transform="rotate(-90 1576 1912)" fill="#414141" fill-opacity="0.8"/>
<rect x="323" y="1912" width="1651" height="4" transform="rotate(-90 323 1912)" fill="#414141" fill-opacity="0.8"/>
<rect x="365" y="1912" width="1651" height="4" transform="rotate(-90 365 1912)" fill="#414141" fill-opacity="0.8"/>
<rect x="344" y="1912" width="1651" height="4" transform="rotate(-90 344 1912)" fill="#414141" fill-opacity="0.8"/>
<rect x="386" y="1912" width="1651" height="4" transform="rotate(-90 386 1912)" fill="#414141" fill-opacity="0.8"/>
<rect x="330" y="1912" width="1651" height="4" transform="rotate(-90 330 1912)" fill="#414141" fill-opacity="0.8"/>
<rect x="372" y="1912" width="1651" height="4" transform="rotate(-90 372 1912)" fill="#414141" fill-opacity="0.8"/>
<rect x="351" y="1912" width="1651" height="4" transform="rotate(-90 351 1912)" fill="#414141" fill-opacity="0.8"/>
<rect x="393" y="1912" width="1651" height="4" transform="rotate(-90 393 1912)" fill="#414141" fill-opacity="0.8"/>
<rect x="337" y="1912" width="1651" height="4" transform="rotate(-90 337 1912)" fill="#414141" fill-opacity="0.8"/>
<rect x="379" y="1912" width="1651" height="4" transform="rotate(-90 379 1912)" fill="#414141" fill-opacity="0.8"/>
<rect x="358" y="1912" width="1651" height="4" transform="rotate(-90 358 1912)" fill="#414141" fill-opacity="0.8"/>
<rect x="400" y="1912" width="1651" height="4" transform="rotate(-90 400 1912)" fill="#414141" fill-opacity="0.8"/>
<rect x="659" y="1912" width="1651" height="4" transform="rotate(-90 659 1912)" fill="#414141" fill-opacity="0.8"/>
<rect x="701" y="1912" width="1651" height="4" transform="rotate(-90 701 1912)" fill="#414141" fill-opacity="0.8"/>
<rect x="680" y="1912" width="1651" height="4" transform="rotate(-90 680 1912)" fill="#414141" fill-opacity="0.8"/>
<rect x="722" y="1912" width="1651" height="4" transform="rotate(-90 722 1912)" fill="#414141" fill-opacity="0.8"/>
<rect x="666" y="1912" width="1651" height="4" transform="rotate(-90 666 1912)" fill="#414141" fill-opacity="0.8"/>
<rect x="708" y="1912" width="1651" height="4" transform="rotate(-90 708 1912)" fill="#414141" fill-opacity="0.8"/>
<rect x="687" y="1912" width="1651" height="4" transform="rotate(-90 687 1912)" fill="#414141" fill-opacity="0.8"/>
<rect x="729" y="1912" width="1651" height="4" transform="rotate(-90 729 1912)" fill="#414141" fill-opacity="0.8"/>
<rect x="673" y="1912" width="1651" height="4" transform="rotate(-90 673 1912)" fill="#414141" fill-opacity="0.8"/>
<rect x="715" y="1912" width="1651" height="4" transform="rotate(-90 715 1912)" fill="#414141" fill-opacity="0.8"/>
<rect x="694" y="1912" width="1651" height="4" transform="rotate(-90 694 1912)" fill="#414141" fill-opacity="0.8"/>
<rect x="736" y="1912" width="1651" height="4" transform="rotate(-90 736 1912)" fill="#414141" fill-opacity="0.8"/>
<rect x="1331" y="1912" width="1651" height="4" transform="rotate(-90 1331 1912)" fill="#414141" fill-opacity="0.8"/>
<rect x="1373" y="1912" width="1651" height="4" transform="rotate(-90 1373 1912)" fill="#414141" fill-opacity="0.8"/>
<rect x="1352" y="1912" width="1651" height="4" transform="rotate(-90 1352 1912)" fill="#414141" fill-opacity="0.8"/>
<rect x="1394" y="1912" width="1651" height="4" transform="rotate(-90 1394 1912)" fill="#414141" fill-opacity="0.8"/>
<rect x="1338" y="1912" width="1651" height="4" transform="rotate(-90 1338 1912)" fill="#414141" fill-opacity="0.8"/>
<rect x="1380" y="1912" width="1651" height="4" transform="rotate(-90 1380 1912)" fill="#414141" fill-opacity="0.8"/>
<rect x="1359" y="1912" width="1651" height="4" transform="rotate(-90 1359 1912)" fill="#414141" fill-opacity="0.8"/>
<rect x="1401" y="1912" width="1651" height="4" transform="rotate(-90 1401 1912)" fill="#414141" fill-opacity="0.8"/>
<rect x="1345" y="1912" width="1651" height="4" transform="rotate(-90 1345 1912)" fill="#414141" fill-opacity="0.8"/>
<rect x="1387" y="1912" width="1651" height="4" transform="rotate(-90 1387 1912)" fill="#414141" fill-opacity="0.8"/>
<rect x="1366" y="1912" width="1651" height="4" transform="rotate(-90 1366 1912)" fill="#414141" fill-opacity="0.8"/>
<rect x="1408" y="1912" width="1651" height="4" transform="rotate(-90 1408 1912)" fill="#414141" fill-opacity="0.8"/>
<rect x="995" y="1912" width="1651" height="4" transform="rotate(-90 995 1912)" fill="#414141" fill-opacity="0.8"/>
<rect x="1037" y="1912" width="1651" height="4" transform="rotate(-90 1037 1912)" fill="#414141" fill-opacity="0.8"/>
<rect x="1016" y="1912" width="1651" height="4" transform="rotate(-90 1016 1912)" fill="#414141" fill-opacity="0.8"/>
<rect x="1058" y="1912" width="1651" height="4" transform="rotate(-90 1058 1912)" fill="#414141" fill-opacity="0.8"/>
<rect x="1002" y="1912" width="1651" height="4" transform="rotate(-90 1002 1912)" fill="#414141" fill-opacity="0.8"/>
<rect x="1044" y="1912" width="1651" height="4" transform="rotate(-90 1044 1912)" fill="#414141" fill-opacity="0.8"/>
<rect x="1023" y="1912" width="1651" height="4" transform="rotate(-90 1023 1912)" fill="#414141" fill-opacity="0.8"/>
<rect x="1065" y="1912" width="1651" height="4" transform="rotate(-90 1065 1912)" fill="#414141" fill-opacity="0.8"/>
<rect x="1009" y="1912" width="1651" height="4" transform="rotate(-90 1009 1912)" fill="#414141" fill-opacity="0.8"/>
<rect x="1051" y="1912" width="1651" height="4" transform="rotate(-90 1051 1912)" fill="#414141" fill-opacity="0.8"/>
<rect x="1030" y="1912" width="1651" height="4" transform="rotate(-90 1030 1912)" fill="#414141" fill-opacity="0.8"/>
<rect x="1072" y="1912" width="1651" height="4" transform="rotate(-90 1072 1912)" fill="#414141" fill-opacity="0.8"/>
<rect x="1667" y="1912" width="1651" height="4" transform="rotate(-90 1667 1912)" fill="#414141" fill-opacity="0.8"/>
<rect x="1709" y="1912" width="1651" height="4" transform="rotate(-90 1709 1912)" fill="#414141" fill-opacity="0.8"/>
<rect x="1688" y="1912" width="1651" height="4" transform="rotate(-90 1688 1912)" fill="#414141" fill-opacity="0.8"/>
<rect x="1674" y="1912" width="1651" height="4" transform="rotate(-90 1674 1912)" fill="#414141" fill-opacity="0.8"/>
<rect x="1695" y="1912" width="1651" height="4" transform="rotate(-90 1695 1912)" fill="#414141" fill-opacity="0.8"/>
<rect x="1681" y="1912" width="1651" height="4" transform="rotate(-90 1681 1912)" fill="#414141" fill-opacity="0.8"/>
<rect x="1702" y="1912" width="1651" height="4" transform="rotate(-90 1702 1912)" fill="#414141" fill-opacity="0.8"/>
<rect x="73" y="267" width="1651" height="4" fill="#555555" fill-opacity="0.56"/>
<rect x="73" y="309" width="1651" height="4" fill="#555555" fill-opacity="0.56"/>
<rect x="73" y="288" width="1651" height="4" fill="#555555" fill-opacity="0.56"/>
<rect x="73" y="330" width="1651" height="4" fill="#555555" fill-opacity="0.56"/>
<rect x="73" y="274" width="1651" height="4" fill="#555555" fill-opacity="0.56"/>
<rect x="73" y="316" width="1651" height="4" fill="#555555" fill-opacity="0.56"/>
<rect x="73" y="295" width="1651" height="4" fill="#555555" fill-opacity="0.56"/>
<rect x="73" y="337" width="1651" height="4" fill="#555555" fill-opacity="0.56"/>
<rect x="73" y="281" width="1651" height="4" fill="#555555" fill-opacity="0.56"/>
<rect x="73" y="323" width="1651" height="4" fill="#555555" fill-opacity="0.56"/>
<rect x="73" y="302" width="1651" height="4" fill="#555555" fill-opacity="0.56"/>
<rect x="73" y="344" width="1651" height="4" fill="#555555" fill-opacity="0.56"/>
<rect x="73" y="351" width="1651" height="4" fill="#555555" fill-opacity="0.56"/>
<rect x="73" y="393" width="1651" height="4" fill="#555555" fill-opacity="0.56"/>
<rect x="73" y="372" width="1651" height="4" fill="#555555" fill-opacity="0.56"/>
<rect x="73" y="414" width="1651" height="4" fill="#555555" fill-opacity="0.56"/>
<rect x="73" y="358" width="1651" height="4" fill="#555555" fill-opacity="0.56"/>
<rect x="73" y="400" width="1651" height="4" fill="#555555" fill-opacity="0.56"/>
<rect x="73" y="379" width="1651" height="4" fill="#555555" fill-opacity="0.56"/>
<rect x="73" y="421" width="1651" height="4" fill="#555555" fill-opacity="0.56"/>
<rect x="73" y="365" width="1651" height="4" fill="#555555" fill-opacity="0.56"/>
<rect x="73" y="407" width="1651" height="4" fill="#555555" fill-opacity="0.56"/>
<rect x="73" y="386" width="1651" height="4" fill="#555555" fill-opacity="0.56"/>
<rect x="73" y="428" width="1651" height="4" fill="#555555" fill-opacity="0.56"/>
<rect x="73" y="603" width="1651" height="4" fill="#555555" fill-opacity="0.56"/>
<rect x="73" y="645" width="1651" height="4" fill="#555555" fill-opacity="0.56"/>
<rect x="73" y="624" width="1651" height="4" fill="#555555" fill-opacity="0.56"/>
<rect x="73" y="666" width="1651" height="4" fill="#555555" fill-opacity="0.56"/>
<rect x="73" y="610" width="1651" height="4" fill="#555555" fill-opacity="0.56"/>
<rect x="73" y="652" width="1651" height="4" fill="#555555" fill-opacity="0.56"/>
<rect x="73" y="631" width="1651" height="4" fill="#555555" fill-opacity="0.56"/>
<rect x="73" y="673" width="1651" height="4" fill="#555555" fill-opacity="0.56"/>
<rect x="73" y="617" width="1651" height="4" fill="#555555" fill-opacity="0.56"/>
<rect x="73" y="659" width="1651" height="4" fill="#555555" fill-opacity="0.56"/>
<rect x="73" y="638" width="1651" height="4" fill="#555555" fill-opacity="0.56"/>
<rect x="73" y="680" width="1651" height="4" fill="#555555" fill-opacity="0.56"/>
<rect x="73" y="435" width="1651" height="4" fill="#555555" fill-opacity="0.56"/>
<rect x="73" y="477" width="1651" height="4" fill="#555555" fill-opacity="0.56"/>
<rect x="73" y="456" width="1651" height="4" fill="#555555" fill-opacity="0.56"/>
<rect x="73" y="498" width="1651" height="4" fill="#555555" fill-opacity="0.56"/>
<rect x="73" y="442" width="1651" height="4" fill="#555555" fill-opacity="0.56"/>
<rect x="73" y="484" width="1651" height="4" fill="#555555" fill-opacity="0.56"/>
<rect x="73" y="463" width="1651" height="4" fill="#555555" fill-opacity="0.56"/>
<rect x="73" y="505" width="1651" height="4" fill="#555555" fill-opacity="0.56"/>
<rect x="73" y="449" width="1651" height="4" fill="#555555" fill-opacity="0.56"/>
<rect x="73" y="491" width="1651" height="4" fill="#555555" fill-opacity="0.56"/>
<rect x="73" y="470" width="1651" height="4" fill="#555555" fill-opacity="0.56"/>
<rect x="73" y="512" width="1651" height="4" fill="#555555" fill-opacity="0.56"/>
<rect x="73" y="687" width="1651" height="4" fill="#555555" fill-opacity="0.56"/>
<rect x="73" y="729" width="1651" height="4" fill="#555555" fill-opacity="0.56"/>
<rect x="73" y="708" width="1651" height="4" fill="#555555" fill-opacity="0.56"/>
<rect x="73" y="750" width="1651" height="4" fill="#555555" fill-opacity="0.56"/>
<rect x="73" y="694" width="1651" height="4" fill="#555555" fill-opacity="0.56"/>
<rect x="73" y="736" width="1651" height="4" fill="#555555" fill-opacity="0.56"/>
<rect x="73" y="715" width="1651" height="4" fill="#555555" fill-opacity="0.56"/>
<rect x="73" y="757" width="1651" height="4" fill="#555555" fill-opacity="0.56"/>
<rect x="73" y="701" width="1651" height="4" fill="#555555" fill-opacity="0.56"/>
<rect x="73" y="743" width="1651" height="4" fill="#555555" fill-opacity="0.56"/>
<rect x="73" y="722" width="1651" height="4" fill="#555555" fill-opacity="0.56"/>
<rect x="73" y="764" width="1651" height="4" fill="#555555" fill-opacity="0.56"/>
<rect x="73" y="519" width="1651" height="4" fill="#555555" fill-opacity="0.56"/>
<rect x="73" y="561" width="1651" height="4" fill="#555555" fill-opacity="0.56"/>
<rect x="73" y="540" width="1651" height="4" fill="#555555" fill-opacity="0.56"/>
<rect x="73" y="582" width="1651" height="4" fill="#555555" fill-opacity="0.56"/>
<rect x="73" y="526" width="1651" height="4" fill="#555555" fill-opacity="0.56"/>
<rect x="73" y="568" width="1651" height="4" fill="#555555" fill-opacity="0.56"/>
<rect x="73" y="547" width="1651" height="4" fill="#555555" fill-opacity="0.56"/>
<rect x="73" y="589" width="1651" height="4" fill="#555555" fill-opacity="0.56"/>
<rect x="73" y="533" width="1651" height="4" fill="#555555" fill-opacity="0.56"/>
<rect x="73" y="575" width="1651" height="4" fill="#555555" fill-opacity="0.56"/>
<rect x="73" y="554" width="1651" height="4" fill="#555555" fill-opacity="0.56"/>
<rect x="73" y="596" width="1651" height="4" fill="#555555" fill-opacity="0.56"/>
<rect x="73" y="771" width="1651" height="4" fill="#555555" fill-opacity="0.56"/>
<rect x="73" y="813" width="1651" height="4" fill="#555555" fill-opacity="0.56"/>
<rect x="73" y="792" width="1651" height="4" fill="#555555" fill-opacity="0.56"/>
<rect x="73" y="834" width="1651" height="4" fill="#555555" fill-opacity="0.56"/>
<rect x="73" y="778" width="1651" height="4" fill="#555555" fill-opacity="0.56"/>
<rect x="73" y="820" width="1651" height="4" fill="#555555" fill-opacity="0.56"/>
<rect x="73" y="799" width="1651" height="4" fill="#555555" fill-opacity="0.56"/>
<rect x="73" y="841" width="1651" height="4" fill="#555555" fill-opacity="0.56"/>
<rect x="73" y="785" width="1651" height="4" fill="#555555" fill-opacity="0.56"/>
<rect x="73" y="827" width="1651" height="4" fill="#555555" fill-opacity="0.56"/>
<rect x="73" y="806" width="1651" height="4" fill="#555555" fill-opacity="0.56"/>
<rect x="73" y="848" width="1651" height="4" fill="#555555" fill-opacity="0.56"/>
</g>
<path d="M1581.12 239V228.818H1584.75C1585.54 228.818 1586.2 228.962 1586.72 229.251C1587.24 229.539 1587.63 229.933 1587.88 230.434C1588.14 230.931 1588.27 231.491 1588.27 232.114C1588.27 232.741 1588.14 233.304 1587.88 233.805C1587.62 234.302 1587.23 234.696 1586.71 234.988C1586.19 235.276 1585.53 235.42 1584.74 235.42H1582.25V234.118H1584.6C1585.1 234.118 1585.51 234.032 1585.82 233.859C1586.13 233.684 1586.36 233.445 1586.51 233.143C1586.65 232.842 1586.73 232.499 1586.73 232.114C1586.73 231.73 1586.65 231.388 1586.51 231.09C1586.36 230.792 1586.13 230.558 1585.82 230.389C1585.51 230.22 1585.09 230.136 1584.58 230.136H1582.65V239H1581.12ZM1598.92 233.909C1598.92 234.996 1598.72 235.931 1598.32 236.713C1597.92 237.492 1597.38 238.092 1596.69 238.513C1596 238.93 1595.21 239.139 1594.33 239.139C1593.45 239.139 1592.67 238.93 1591.97 238.513C1591.28 238.092 1590.74 237.49 1590.34 236.708C1589.94 235.926 1589.75 234.993 1589.75 233.909C1589.75 232.822 1589.94 231.889 1590.34 231.11C1590.74 230.328 1591.28 229.728 1591.97 229.31C1592.67 228.889 1593.45 228.679 1594.33 228.679C1595.21 228.679 1596 228.889 1596.69 229.31C1597.38 229.728 1597.92 230.328 1598.32 231.11C1598.72 231.889 1598.92 232.822 1598.92 233.909ZM1597.4 233.909C1597.4 233.08 1597.26 232.383 1596.99 231.816C1596.73 231.246 1596.36 230.815 1595.9 230.523C1595.44 230.228 1594.92 230.081 1594.33 230.081C1593.75 230.081 1593.22 230.228 1592.76 230.523C1592.3 230.815 1591.94 231.246 1591.67 231.816C1591.4 232.383 1591.27 233.08 1591.27 233.909C1591.27 234.738 1591.4 235.437 1591.67 236.007C1591.94 236.574 1592.3 237.005 1592.76 237.3C1593.22 237.591 1593.75 237.737 1594.33 237.737C1594.92 237.737 1595.44 237.591 1595.9 237.3C1596.36 237.005 1596.73 236.574 1596.99 236.007C1597.26 235.437 1597.4 234.738 1597.4 233.909ZM1602.7 239L1599.88 228.818H1601.5L1603.48 236.703H1603.57L1605.64 228.818H1607.24L1609.3 236.708H1609.4L1611.37 228.818H1613L1610.17 239H1608.62L1606.48 231.374H1606.4L1604.26 239H1602.7ZM1614.4 239V228.818H1620.78V230.141H1615.93V233.243H1620.45V234.56H1615.93V237.678H1620.84V239H1614.4ZM1622.83 239V228.818H1626.46C1627.25 228.818 1627.9 228.954 1628.42 229.226C1628.95 229.498 1629.34 229.874 1629.6 230.354C1629.86 230.832 1629.99 231.384 1629.99 232.01C1629.99 232.633 1629.85 233.182 1629.59 233.656C1629.33 234.126 1628.94 234.492 1628.42 234.754C1627.9 235.016 1627.24 235.147 1626.46 235.147H1623.71V233.825H1626.32C1626.81 233.825 1627.22 233.753 1627.53 233.611C1627.84 233.468 1628.07 233.261 1628.22 232.989C1628.37 232.718 1628.44 232.391 1628.44 232.01C1628.44 231.625 1628.36 231.292 1628.22 231.011C1628.07 230.729 1627.84 230.513 1627.52 230.364C1627.21 230.212 1626.8 230.136 1626.3 230.136H1624.37V239H1622.83ZM1627.86 234.406L1630.37 239H1628.62L1626.16 234.406H1627.86Z" fill="white"/>
<path d="M294.009 228.818L296.842 237.111H296.957L299.79 228.818H301.451L297.787 239H296.012L292.348 228.818H294.009ZM311.26 233.909C311.26 234.996 311.061 235.931 310.663 236.713C310.266 237.492 309.72 238.092 309.028 238.513C308.338 238.93 307.554 239.139 306.676 239.139C305.795 239.139 305.007 238.93 304.315 238.513C303.625 238.092 303.082 237.49 302.684 236.708C302.286 235.926 302.087 234.993 302.087 233.909C302.087 232.822 302.286 231.889 302.684 231.11C303.082 230.328 303.625 229.728 304.315 229.31C305.007 228.889 305.795 228.679 306.676 228.679C307.554 228.679 308.338 228.889 309.028 229.31C309.72 229.728 310.266 230.328 310.663 231.11C311.061 231.889 311.26 232.822 311.26 233.909ZM309.739 233.909C309.739 233.08 309.604 232.383 309.336 231.816C309.071 231.246 308.706 230.815 308.242 230.523C307.781 230.228 307.259 230.081 306.676 230.081C306.089 230.081 305.566 230.228 305.105 230.523C304.644 230.815 304.28 231.246 304.011 231.816C303.746 232.383 303.614 233.08 303.614 233.909C303.614 234.738 303.746 235.437 304.011 236.007C304.28 236.574 304.644 237.005 305.105 237.3C305.566 237.591 306.089 237.737 306.676 237.737C307.259 237.737 307.781 237.591 308.242 237.3C308.706 237.005 309.071 236.574 309.336 236.007C309.604 235.437 309.739 234.738 309.739 233.909ZM313.175 239V228.818H314.711V237.678H319.325V239H313.175ZM327.625 228.818H329.166V235.515C329.166 236.228 328.999 236.859 328.664 237.409C328.329 237.956 327.859 238.387 327.252 238.702C326.646 239.013 325.935 239.169 325.119 239.169C324.307 239.169 323.598 239.013 322.992 238.702C322.385 238.387 321.914 237.956 321.58 237.409C321.245 236.859 321.078 236.228 321.078 235.515V228.818H322.614V235.391C322.614 235.851 322.715 236.261 322.917 236.619C323.123 236.977 323.413 237.258 323.787 237.464C324.162 237.666 324.606 237.767 325.119 237.767C325.637 237.767 326.082 237.666 326.457 237.464C326.835 237.258 327.123 236.977 327.322 236.619C327.524 236.261 327.625 235.851 327.625 235.391V228.818ZM331.4 228.818H333.264L336.506 236.733H336.625L339.866 228.818H341.731V239H340.269V231.632H340.175L337.172 238.985H335.959L332.956 231.627H332.862V239H331.4V228.818ZM343.964 239V228.818H350.348V230.141H345.501V233.243H350.015V234.56H345.501V237.678H350.407V239H343.964Z" fill="white"/>
<path d="M399.784 115H396.959V106.273H399.874C400.729 106.273 401.463 106.447 402.077 106.797C402.69 107.143 403.161 107.642 403.487 108.293C403.817 108.94 403.982 109.717 403.982 110.624C403.982 111.533 403.815 112.314 403.483 112.967C403.153 113.621 402.676 114.124 402.051 114.476C401.426 114.825 400.67 115 399.784 115ZM398.276 113.849H399.712C400.376 113.849 400.929 113.724 401.369 113.474C401.81 113.222 402.139 112.857 402.358 112.379C402.577 111.899 402.686 111.314 402.686 110.624C402.686 109.939 402.577 109.358 402.358 108.881C402.142 108.403 401.82 108.041 401.391 107.794C400.962 107.547 400.429 107.423 399.793 107.423H398.276V113.849ZM405.619 115V106.273H408.73C409.406 106.273 409.967 106.389 410.413 106.622C410.862 106.855 411.197 107.178 411.419 107.589C411.64 107.999 411.751 108.472 411.751 109.009C411.751 109.543 411.639 110.013 411.414 110.419C411.193 110.822 410.858 111.136 410.409 111.361C409.963 111.585 409.402 111.697 408.725 111.697H406.369V110.564H408.606C409.032 110.564 409.379 110.503 409.646 110.381C409.916 110.259 410.113 110.081 410.238 109.848C410.363 109.615 410.426 109.335 410.426 109.009C410.426 108.679 410.362 108.393 410.234 108.152C410.109 107.911 409.912 107.726 409.642 107.598C409.375 107.467 409.024 107.402 408.589 107.402H406.936V115H405.619ZM409.927 111.062L412.083 115H410.583L408.47 111.062H409.927ZM414.67 106.273V115H413.353V106.273H414.67ZM417.35 106.273L419.779 113.381H419.877L422.306 106.273H423.73L420.589 115H419.068L415.927 106.273H417.35ZM424.99 115V106.273H430.462V107.406H426.307V110.065H430.176V111.195H426.307V113.866H430.513V115H424.99ZM440.156 108.565C440.111 108.162 439.923 107.849 439.594 107.628C439.264 107.403 438.849 107.291 438.349 107.291C437.991 107.291 437.682 107.348 437.42 107.462C437.159 107.572 436.956 107.726 436.811 107.922C436.669 108.115 436.598 108.335 436.598 108.582C436.598 108.79 436.646 108.969 436.743 109.119C436.842 109.27 436.972 109.396 437.131 109.499C437.293 109.598 437.466 109.682 437.651 109.75C437.835 109.815 438.013 109.869 438.183 109.912L439.036 110.134C439.314 110.202 439.599 110.294 439.892 110.411C440.185 110.527 440.456 110.68 440.706 110.871C440.956 111.061 441.158 111.297 441.311 111.578C441.467 111.859 441.545 112.196 441.545 112.588C441.545 113.082 441.418 113.521 441.162 113.905C440.909 114.288 440.541 114.591 440.058 114.812C439.578 115.034 438.997 115.145 438.315 115.145C437.662 115.145 437.097 115.041 436.619 114.834C436.142 114.626 435.768 114.332 435.499 113.952C435.229 113.568 435.08 113.114 435.051 112.588H436.372C436.398 112.903 436.5 113.166 436.679 113.376C436.861 113.584 437.092 113.739 437.374 113.841C437.658 113.94 437.969 113.99 438.307 113.99C438.679 113.99 439.01 113.932 439.3 113.815C439.592 113.696 439.822 113.531 439.99 113.321C440.158 113.108 440.241 112.859 440.241 112.575C440.241 112.317 440.168 112.105 440.02 111.94C439.875 111.776 439.678 111.639 439.428 111.531C439.18 111.423 438.901 111.328 438.588 111.246L437.557 110.964C436.858 110.774 436.304 110.494 435.895 110.125C435.489 109.756 435.286 109.267 435.286 108.659C435.286 108.156 435.422 107.717 435.695 107.342C435.967 106.967 436.337 106.676 436.803 106.469C437.268 106.259 437.794 106.153 438.379 106.153C438.97 106.153 439.491 106.257 439.943 106.464C440.398 106.672 440.756 106.957 441.017 107.321C441.278 107.682 441.415 108.097 441.426 108.565H440.156ZM443.119 115V106.273H448.591V107.406H444.436V110.065H448.305V111.195H444.436V113.866H448.642V115H443.119ZM450.349 115V106.273H451.666V113.866H455.621V115H450.349ZM457.123 115V106.273H462.594V107.406H458.44V110.065H462.309V111.195H458.44V113.866H462.646V115H457.123ZM471.602 109.111H470.272C470.221 108.827 470.126 108.577 469.987 108.361C469.848 108.145 469.677 107.962 469.475 107.811C469.274 107.661 469.048 107.547 468.798 107.47C468.551 107.393 468.288 107.355 468.01 107.355C467.507 107.355 467.056 107.482 466.659 107.734C466.264 107.987 465.951 108.358 465.721 108.847C465.494 109.335 465.38 109.932 465.38 110.636C465.38 111.347 465.494 111.946 465.721 112.435C465.951 112.923 466.265 113.293 466.663 113.543C467.061 113.793 467.508 113.918 468.005 113.918C468.281 113.918 468.542 113.881 468.789 113.807C469.039 113.73 469.265 113.618 469.467 113.47C469.669 113.322 469.839 113.142 469.978 112.929C470.12 112.713 470.218 112.466 470.272 112.188L471.602 112.192C471.531 112.621 471.393 113.016 471.189 113.376C470.987 113.734 470.727 114.044 470.409 114.305C470.093 114.564 469.733 114.764 469.326 114.906C468.92 115.048 468.477 115.119 467.997 115.119C467.241 115.119 466.568 114.94 465.977 114.582C465.386 114.222 464.92 113.706 464.579 113.036C464.241 112.365 464.072 111.565 464.072 110.636C464.072 109.705 464.243 108.905 464.583 108.237C464.924 107.567 465.39 107.053 465.981 106.695C466.572 106.334 467.244 106.153 467.997 106.153C468.46 106.153 468.892 106.22 469.292 106.354C469.696 106.484 470.058 106.678 470.379 106.933C470.7 107.186 470.966 107.496 471.176 107.862C471.386 108.226 471.528 108.642 471.602 109.111ZM472.747 107.406V106.273H479.501V107.406H476.778V115H475.466V107.406H472.747Z" fill="white"/>
<path d="M529.616 230.141V228.818H537.496V230.141H534.32V239H532.788V230.141H529.616ZM539.238 239V228.818H542.867C543.656 228.818 544.31 228.954 544.831 229.226C545.354 229.498 545.746 229.874 546.004 230.354C546.263 230.832 546.392 231.384 546.392 232.01C546.392 232.633 546.261 233.182 545.999 233.656C545.741 234.126 545.349 234.492 544.826 234.754C544.305 235.016 543.651 235.147 542.862 235.147H540.113V233.825H542.723C543.22 233.825 543.624 233.753 543.936 233.611C544.251 233.468 544.481 233.261 544.627 232.989C544.773 232.718 544.846 232.391 544.846 232.01C544.846 231.625 544.771 231.292 544.622 231.011C544.476 230.729 544.246 230.513 543.931 230.364C543.619 230.212 543.21 230.136 542.703 230.136H540.774V239H539.238ZM544.264 234.406L546.78 239H545.03L542.564 234.406H544.264ZM548.261 239V228.818H554.645V230.141H549.797V233.243H554.312V234.56H549.797V237.678H554.704V239H548.261ZM556.697 239V228.818H560.425C561.148 228.818 561.746 228.937 562.22 229.176C562.694 229.411 563.049 229.731 563.284 230.136C563.519 230.537 563.637 230.989 563.637 231.493C563.637 231.917 563.559 232.275 563.403 232.567C563.248 232.855 563.039 233.087 562.777 233.263C562.518 233.435 562.233 233.561 561.922 233.641V233.74C562.26 233.757 562.59 233.866 562.911 234.068C563.236 234.267 563.504 234.55 563.717 234.918C563.929 235.286 564.035 235.734 564.035 236.261C564.035 236.781 563.912 237.248 563.667 237.663C563.425 238.074 563.05 238.4 562.543 238.642C562.036 238.881 561.388 239 560.599 239H556.697ZM558.233 237.683H560.45C561.186 237.683 561.713 237.54 562.031 237.255C562.349 236.97 562.509 236.614 562.509 236.186C562.509 235.865 562.427 235.57 562.265 235.301C562.103 235.033 561.871 234.819 561.569 234.66C561.271 234.501 560.916 234.421 560.505 234.421H558.233V237.683ZM558.233 233.223H560.291C560.636 233.223 560.946 233.157 561.221 233.024C561.499 232.892 561.72 232.706 561.882 232.467C562.048 232.225 562.131 231.94 562.131 231.612C562.131 231.191 561.983 230.838 561.688 230.553C561.393 230.268 560.941 230.126 560.331 230.126H558.233V233.223ZM565.857 239V228.818H567.393V237.678H572.007V239H565.857ZM573.759 239V228.818H580.143V230.141H575.295V233.243H579.81V234.56H575.295V237.678H580.202V239H573.759Z" fill="white"/>
<path d="M673.119 228.818H674.983L678.224 236.733H678.344L681.585 228.818H683.45V239H681.988V231.632H681.893L678.891 238.985H677.678L674.675 231.627H674.58V239H673.119V228.818ZM687.219 228.818V239H685.683V228.818H687.219ZM692.753 239H689.456V228.818H692.857C693.855 228.818 694.711 229.022 695.427 229.43C696.143 229.834 696.692 230.416 697.073 231.175C697.457 231.93 697.65 232.837 697.65 233.894C697.65 234.955 697.456 235.866 697.068 236.629C696.684 237.391 696.127 237.978 695.398 238.388C694.668 238.796 693.787 239 692.753 239ZM690.993 237.658H692.668C693.444 237.658 694.088 237.512 694.602 237.22C695.116 236.925 695.5 236.499 695.756 235.942C696.011 235.382 696.138 234.7 696.138 233.894C696.138 233.095 696.011 232.418 695.756 231.861C695.504 231.304 695.127 230.881 694.627 230.593C694.126 230.305 693.505 230.161 692.763 230.161H690.993V237.658ZM702.856 239H699.56V228.818H702.961C703.958 228.818 704.815 229.022 705.531 229.43C706.247 229.834 706.795 230.416 707.176 231.175C707.561 231.93 707.753 232.837 707.753 233.894C707.753 234.955 707.559 235.866 707.172 236.629C706.787 237.391 706.23 237.978 705.501 238.388C704.772 238.796 703.89 239 702.856 239ZM701.096 237.658H702.772C703.547 237.658 704.192 237.512 704.706 237.22C705.219 236.925 705.604 236.499 705.859 235.942C706.114 235.382 706.242 234.7 706.242 233.894C706.242 233.095 706.114 232.418 705.859 231.861C705.607 231.304 705.231 230.881 704.73 230.593C704.23 230.305 703.609 230.161 702.866 230.161H701.096V237.658ZM709.664 239V228.818H711.2V237.678H715.813V239H709.664ZM717.566 239V228.818H723.949V230.141H719.102V233.243H723.616V234.56H719.102V237.678H724.009V239H717.566Z" fill="white"/>
<path d="M826.119 236V225.818H829.847C830.57 225.818 831.168 225.937 831.642 226.176C832.116 226.411 832.471 226.731 832.706 227.136C832.941 227.537 833.059 227.989 833.059 228.493C833.059 228.917 832.981 229.275 832.825 229.567C832.67 229.855 832.461 230.087 832.199 230.263C831.94 230.435 831.655 230.561 831.344 230.641V230.74C831.682 230.757 832.012 230.866 832.333 231.068C832.658 231.267 832.926 231.55 833.138 231.918C833.351 232.286 833.457 232.734 833.457 233.261C833.457 233.781 833.334 234.248 833.089 234.663C832.847 235.074 832.472 235.4 831.965 235.642C831.458 235.881 830.81 236 830.021 236H826.119ZM827.655 234.683H829.872C830.608 234.683 831.135 234.54 831.453 234.255C831.771 233.97 831.93 233.614 831.93 233.186C831.93 232.865 831.849 232.57 831.687 232.301C831.524 232.033 831.292 231.819 830.991 231.66C830.692 231.501 830.338 231.421 829.927 231.421H827.655V234.683ZM827.655 230.223H829.713C830.058 230.223 830.368 230.157 830.643 230.024C830.921 229.892 831.142 229.706 831.304 229.467C831.47 229.225 831.553 228.94 831.553 228.612C831.553 228.191 831.405 227.838 831.11 227.553C830.815 227.268 830.363 227.126 829.753 227.126H827.655V230.223ZM836.139 236H834.508L838.172 225.818H839.947L843.611 236H841.98L839.102 227.668H839.022L836.139 236ZM836.412 232.013H841.702V233.305H836.412V232.013ZM850.553 228.493C850.5 228.022 850.281 227.658 849.896 227.399C849.512 227.137 849.028 227.006 848.445 227.006C848.027 227.006 847.666 227.073 847.361 227.205C847.056 227.335 846.819 227.513 846.65 227.742C846.484 227.968 846.401 228.224 846.401 228.513C846.401 228.755 846.458 228.964 846.57 229.139C846.686 229.315 846.837 229.462 847.023 229.582C847.212 229.698 847.414 229.795 847.629 229.875C847.845 229.951 848.052 230.014 848.251 230.064L849.245 230.322C849.57 230.402 849.903 230.51 850.244 230.646C850.586 230.781 850.902 230.96 851.194 231.183C851.486 231.405 851.721 231.68 851.9 232.008C852.082 232.336 852.173 232.729 852.173 233.186C852.173 233.763 852.024 234.275 851.726 234.722C851.431 235.17 851.002 235.523 850.438 235.781C849.878 236.04 849.2 236.169 848.405 236.169C847.643 236.169 846.983 236.048 846.426 235.806C845.869 235.564 845.434 235.221 845.119 234.777C844.804 234.33 844.63 233.799 844.597 233.186H846.138C846.168 233.554 846.287 233.861 846.496 234.106C846.708 234.348 846.978 234.528 847.306 234.648C847.638 234.764 848.001 234.822 848.395 234.822C848.829 234.822 849.215 234.754 849.553 234.618C849.895 234.479 850.163 234.286 850.359 234.041C850.554 233.793 850.652 233.503 850.652 233.171C850.652 232.87 850.566 232.623 850.394 232.43C850.225 232.238 849.994 232.079 849.703 231.953C849.414 231.827 849.088 231.716 848.723 231.62L847.52 231.292C846.705 231.07 846.058 230.743 845.581 230.312C845.107 229.882 844.87 229.312 844.87 228.602C844.87 228.016 845.029 227.504 845.347 227.066C845.666 226.629 846.097 226.289 846.64 226.047C847.184 225.802 847.797 225.679 848.48 225.679C849.169 225.679 849.777 225.8 850.304 226.042C850.834 226.284 851.252 226.617 851.557 227.041C851.862 227.462 852.021 227.946 852.034 228.493H850.553ZM859.562 228.493C859.509 228.022 859.291 227.658 858.906 227.399C858.522 227.137 858.038 227.006 857.455 227.006C857.037 227.006 856.676 227.073 856.371 227.205C856.066 227.335 855.829 227.513 855.66 227.742C855.494 227.968 855.411 228.224 855.411 228.513C855.411 228.755 855.468 228.964 855.58 229.139C855.696 229.315 855.847 229.462 856.033 229.582C856.222 229.698 856.424 229.795 856.639 229.875C856.855 229.951 857.062 230.014 857.261 230.064L858.255 230.322C858.58 230.402 858.913 230.51 859.254 230.646C859.596 230.781 859.912 230.96 860.204 231.183C860.496 231.405 860.731 231.68 860.91 232.008C861.092 232.336 861.183 232.729 861.183 233.186C861.183 233.763 861.034 234.275 860.736 234.722C860.441 235.17 860.012 235.523 859.448 235.781C858.888 236.04 858.21 236.169 857.415 236.169C856.652 236.169 855.993 236.048 855.436 235.806C854.879 235.564 854.443 235.221 854.129 234.777C853.814 234.33 853.64 233.799 853.607 233.186H855.148C855.178 233.554 855.297 233.861 855.506 234.106C855.718 234.348 855.988 234.528 856.316 234.648C856.647 234.764 857.01 234.822 857.405 234.822C857.839 234.822 858.225 234.754 858.563 234.618C858.905 234.479 859.173 234.286 859.369 234.041C859.564 233.793 859.662 233.503 859.662 233.171C859.662 232.87 859.576 232.623 859.403 232.43C859.234 232.238 859.004 232.079 858.712 231.953C858.424 231.827 858.098 231.716 857.733 231.62L856.53 231.292C855.714 231.07 855.068 230.743 854.591 230.312C854.117 229.882 853.88 229.312 853.88 228.602C853.88 228.016 854.039 227.504 854.357 227.066C854.675 226.629 855.106 226.289 855.65 226.047C856.193 225.802 856.807 225.679 857.489 225.679C858.179 225.679 858.787 225.8 859.314 226.042C859.844 226.284 860.262 226.617 860.567 227.041C860.872 227.462 861.031 227.946 861.044 228.493H859.562Z" fill="white"/>
<circle cx="168.5" cy="161.5" r="36.5" fill="#161616"/>
<path d="M168.92 197.543L137.544 179.892L136.13 144.675L167.699 126.292L199.074 143.943L201.496 181.448L168.92 197.543Z" fill="#111111"/>
<circle cx="169" cy="161" r="19" fill="#747474"/>
<mask id="mask1_11_528" style="mask-type:alpha" maskUnits="userSpaceOnUse" x="0" y="58" width="225" height="793">
<rect y="58" width="225" height="793" fill="#D9D9D9"/>
</mask>
<g mask="url(#mask1_11_528)">
<circle cx="169" cy="161" r="16.5" fill="#0A0A0A" stroke="#0A0A0A"/>
<path d="M145.5 141C148 151 152.5 165 152.5 165L185 155.5C185 155.5 183 147 177.5 132.5C165.5 117.5 145.5 120 145.5 141Z" fill="#0A0A0A"/>
<path d="M161 131C161 131 145 98 124.5 110.5C104 123 56.5 282 59.5 384C62.5 486 124.5 588.5 124.5 669C124.5 749.5 100 853.5 100 853.5" stroke="#0A0A0A" stroke-width="10"/>
</g>
<defs>
<filter id="filter0_d_11_528" x="255.494" y="96.926" width="135.946" height="135.946" filterUnits="userSpaceOnUse" color-interpolation-filters="sRGB">
<feFlood flood-opacity="0" result="BackgroundImageFix"/>
<feColorMatrix in="SourceAlpha" type="matrix" values="0 0 0 0 0 0 0 0 0 0 0 0 0 0 0 0 0 0 127 0" result="hardAlpha"/>
<feMorphology radius="10" operator="dilate" in="SourceAlpha" result="effect1_dropShadow_11_528"/>
<feOffset dx="1" dy="1"/>
<feGaussianBlur stdDeviation="5.9"/>
<feComposite in2="hardAlpha" operator="out"/>
<feColorMatrix type="matrix" values="0 0 0 0 0 0 0 0 0 0 0 0 0 0 0 0 0 0 0.14 0"/>
<feBlend mode="normal" in2="BackgroundImageFix" result="effect1_dropShadow_11_528"/>
<feBlend mode="normal" in="SourceGraphic" in2="effect1_dropShadow_11_528" result="shape"/>
</filter>
<filter id="filter1_d_11_528" x="488.494" y="96.926" width="135.946" height="135.946" filterUnits="userSpaceOnUse" color-interpolation-filters="sRGB">
<feFlood flood-opacity="0" result="BackgroundImageFix"/>
<feColorMatrix in="SourceAlpha" type="matrix" values="0 0 0 0 0 0 0 0 0 0 0 0 0 0 0 0 0 0 127 0" result="hardAlpha"/>
<feMorphology radius="10" operator="dilate" in="SourceAlpha" result="effect1_dropShadow_11_528"/>
<feOffset dx="1" dy="1"/>
<feGaussianBlur stdDeviation="5.9"/>
<feComposite in2="hardAlpha" operator="out"/>
<feColorMatrix type="matrix" values="0 0 0 0 0 0 0 0 0 0 0 0 0 0 0 0 0 0 0.14 0"/>
<feBlend mode="normal" in2="BackgroundImageFix" result="effect1_dropShadow_11_528"/>
<feBlend mode="normal" in="SourceGraphic" in2="effect1_dropShadow_11_528" result="shape"/>
</filter>
<filter id="filter2_d_11_528" x="632.494" y="96.926" width="135.946" height="135.946" filterUnits="userSpaceOnUse" color-interpolation-filters="sRGB">
<feFlood flood-opacity="0" result="BackgroundImageFix"/>
<feColorMatrix in="SourceAlpha" type="matrix" values="0 0 0 0 0 0 0 0 0 0 0 0 0 0 0 0 0 0 127 0" result="hardAlpha"/>
<feMorphology radius="10" operator="dilate" in="SourceAlpha" result="effect1_dropShadow_11_528"/>
<feOffset dx="1" dy="1"/>
<feGaussianBlur stdDeviation="5.9"/>
<feComposite in2="hardAlpha" operator="out"/>
<feColorMatrix type="matrix" values="0 0 0 0 0 0 0 0 0 0 0 0 0 0 0 0 0 0 0.14 0"/>
<feBlend mode="normal" in2="BackgroundImageFix" result="effect1_dropShadow_11_528"/>
<feBlend mode="normal" in="SourceGraphic" in2="effect1_dropShadow_11_528" result="shape"/>
</filter>
<filter id="filter3_d_11_528" x="776.494" y="96.926" width="135.946" height="135.946" filterUnits="userSpaceOnUse" color-interpolation-filters="sRGB">
<feFlood flood-opacity="0" result="BackgroundImageFix"/>
<feColorMatrix in="SourceAlpha" type="matrix" values="0 0 0 0 0 0 0 0 0 0 0 0 0 0 0 0 0 0 127 0" result="hardAlpha"/>
<feMorphology radius="10" operator="dilate" in="SourceAlpha" result="effect1_dropShadow_11_528"/>
<feOffset dx="1" dy="1"/>
<feGaussianBlur stdDeviation="5.9"/>
<feComposite in2="hardAlpha" operator="out"/>
<feColorMatrix type="matrix" values="0 0 0 0 0 0 0 0 0 0 0 0 0 0 0 0 0 0 0.14 0"/>
<feBlend mode="normal" in2="BackgroundImageFix" result="effect1_dropShadow_11_528"/>
<feBlend mode="normal" in="SourceGraphic" in2="effect1_dropShadow_11_528" result="shape"/>
</filter>
</defs>
</svg>
