<svg width="105" height="105" viewBox="0 0 105 105" fill="none" xmlns="http://www.w3.org/2000/svg">
<circle cx="52.1049" cy="52.1312" r="46.173" fill="#121212"/>
<path d="M71.649 85.4574L67.0256 77.1795L68.028 76.6197L72.0644 83.8466L72.1129 83.8196L73.3844 81.3489L73.9533 82.3674L72.6514 84.8975L71.649 85.4574Z" fill="#B9B9B9"/>
<path d="M79.8633 62.7109L80.5934 63.1128L82.0854 67.5066C82.2598 68.0218 82.4195 68.455 82.5644 68.8061C82.7121 69.1586 82.8733 69.4482 83.0481 69.6747C83.2241 69.9055 83.4391 70.0908 83.6933 70.2307C83.9853 70.3915 84.2768 70.4603 84.5678 70.4373C84.8573 70.417 85.1264 70.3185 85.3752 70.1419C85.6239 69.9652 85.8309 69.7269 85.9961 69.4267C86.1717 69.1077 86.2588 68.7927 86.2573 68.4818C86.257 68.1752 86.1749 67.8922 86.0111 67.6329C85.8458 67.3764 85.605 67.161 85.2887 66.9869L85.8156 66.0297C86.3023 66.2976 86.6677 66.645 86.9119 67.0718C87.1561 67.4987 87.2745 67.962 87.2671 68.4617C87.2583 68.9642 87.1207 69.4574 86.8543 69.9414C86.5864 70.4281 86.2462 70.8028 85.8338 71.0655C85.4215 71.3282 84.9821 71.4704 84.5157 71.492C84.0493 71.5136 83.6025 71.4068 83.1753 71.1717C82.8698 71.0035 82.6015 70.7836 82.3705 70.512C82.1408 70.2446 81.9218 69.8774 81.7138 69.4106C81.5069 68.9479 81.279 68.338 81.0299 67.5808L80.0614 64.6168L79.9965 64.581L77.8711 68.4421L76.9789 67.951L79.8633 62.7109Z" fill="#B9B9B9"/>
<path d="M81.0057 48.6374C81.0057 48.0263 81.1106 47.4816 81.3205 47.0032C81.5304 46.5279 81.8221 46.1498 82.1955 45.8689C82.5721 45.5911 83.0088 45.4399 83.5057 45.4152L83.5057 46.5819C83.2002 46.6066 82.9363 46.7115 82.714 46.8967C82.4949 47.0819 82.3252 47.3242 82.2048 47.6236C82.0844 47.9229 82.0242 48.2547 82.0242 48.6189C82.0242 49.0263 82.0952 49.3874 82.2372 49.7023C82.3792 50.0171 82.5767 50.264 82.8298 50.443C83.0829 50.622 83.3761 50.7115 83.7094 50.7115C84.0582 50.7115 84.3653 50.6251 84.6307 50.4523C84.8992 50.2794 85.1091 50.0263 85.2604 49.693C85.4116 49.3597 85.4872 48.9523 85.4872 48.4708L85.4872 47.7115L86.5057 47.7115L86.5057 48.4708C86.5057 48.8473 86.5736 49.1776 86.7094 49.4615C86.8452 49.7486 87.0366 49.9723 87.2835 50.1328C87.5304 50.2964 87.8205 50.3782 88.1539 50.3782C88.4749 50.3782 88.7542 50.3072 88.9918 50.1652C89.2295 50.0233 89.4147 49.8226 89.5474 49.5634C89.6801 49.3072 89.7465 49.0047 89.7465 48.656C89.7465 48.3288 89.6863 48.0202 89.5659 47.73C89.4486 47.443 89.2773 47.2084 89.052 47.0263C88.8298 46.8442 88.5613 46.7455 88.2465 46.73L88.2465 45.6189C88.7434 45.6374 89.1786 45.7871 89.552 46.068C89.9286 46.3489 90.2218 46.7161 90.4317 47.1698C90.6415 47.6266 90.7465 48.1282 90.7465 48.6745C90.7465 49.2609 90.6277 49.764 90.39 50.1837C90.1554 50.6035 89.8452 50.926 89.4594 51.1513C89.0736 51.3767 88.657 51.4893 88.2094 51.4893C87.6755 51.4893 87.2202 51.3489 86.8437 51.068C86.4671 50.7902 86.2063 50.4121 86.0613 49.9337L85.9872 49.9337C85.8884 50.5325 85.6338 51.0001 85.2233 51.3365C84.8159 51.673 84.3113 51.8412 83.7094 51.8412C83.194 51.8412 82.731 51.7007 82.3205 51.4199C81.9131 51.1421 81.5921 50.7625 81.3576 50.281C81.123 49.7995 81.0057 49.2516 81.0057 48.6374Z" fill="#B9B9B9"/>
<path d="M73.6967 28.9332L74.4699 28.3908L82.2599 28.0164L82.6534 28.5774L81.4556 29.4175L81.1898 29.0384L75.3037 29.3216L75.2431 29.3641L78.4651 33.9579L77.6313 34.5428L73.6967 28.9332ZM74.6676 33.7035L82.4301 28.259L83.0574 29.1535L75.295 34.598L74.6676 33.7035Z" fill="#B9B9B9"/>
<path d="M60.5006 22.9116C59.9872 22.734 59.5602 22.4719 59.2196 22.1255C58.879 21.779 58.6462 21.385 58.5214 20.9433C58.3966 20.5017 58.4013 20.0494 58.5354 19.5863L59.5854 19.9496C59.486 20.3691 59.5537 20.7681 59.7885 21.1466C60.0273 21.5231 60.3756 21.7906 60.8336 21.9491C61.2011 22.0762 61.5575 22.1032 61.9029 22.03C62.2512 21.9578 62.559 21.7998 62.8263 21.5559C63.0975 21.31 63.2992 20.9961 63.4314 20.614C63.5667 20.2231 63.6012 19.8448 63.5351 19.479C63.4729 19.1113 63.3238 18.787 63.0878 18.5061C62.8519 18.2253 62.5434 18.0173 62.1623 17.8822C61.8891 17.7844 61.593 17.7293 61.274 17.7169C60.9559 17.7016 60.6804 17.7287 60.4473 17.7983L59.4746 17.3246L61.543 13.1021L66.1982 14.7128L65.8652 15.6753L62.12 14.3795L60.8907 16.9131L60.9432 16.9313C61.1774 16.8491 61.4497 16.8077 61.7601 16.8073C62.0705 16.807 62.3759 16.8587 62.6764 16.9627C63.2247 17.1524 63.6679 17.4527 64.0058 17.8636C64.3477 18.2725 64.5629 18.7454 64.6515 19.2823C64.743 19.8202 64.6884 20.3793 64.4875 20.9598C64.2897 21.5315 63.9848 21.9975 63.5727 22.3579C63.1645 22.7163 62.6924 22.9482 62.1563 23.0534C61.6213 23.1556 61.0693 23.1084 60.5006 22.9116Z" fill="#B9B9B9"/>
<path d="M43.9597 24.3461C43.5889 24.4635 43.1966 24.5166 42.7827 24.5052C42.3689 24.4938 41.9564 24.3794 41.5453 24.1621C41.1333 23.9419 40.7436 23.5889 40.3762 23.1031C40.0079 22.6144 39.6848 21.9544 39.4069 21.123C39.1408 20.3268 38.9797 19.5964 38.9235 18.9318C38.8664 18.2642 38.9093 17.6723 39.0524 17.1558C39.1945 16.6365 39.4293 16.2 39.757 15.8464C40.0876 15.4919 40.5061 15.23 41.0125 15.0607C41.516 14.8924 41.9976 14.8437 42.4574 14.9146C42.9191 14.9816 43.334 15.1521 43.7022 15.426C44.0704 15.7 44.3688 16.0575 44.5976 16.4984L43.5262 16.8565C43.2917 16.4858 42.9864 16.2152 42.6105 16.0447C42.2346 15.8742 41.8096 15.8682 41.3353 16.0267C40.6387 16.2596 40.1911 16.746 39.9925 17.4859C39.797 18.2249 39.8806 19.1423 40.2436 20.2381L40.3139 20.2146C40.3946 19.911 40.5184 19.6337 40.6851 19.3828C40.8537 19.1279 41.0595 18.9062 41.3024 18.7176C41.5452 18.529 41.8204 18.3834 42.1277 18.2807C42.6429 18.1085 43.1573 18.0798 43.6707 18.1945C44.1832 18.3064 44.6436 18.5446 45.0519 18.9093C45.4592 19.2711 45.7597 19.7418 45.9534 20.3214C46.1393 20.8776 46.1851 21.4285 46.0908 21.9742C45.9956 22.5169 45.7681 22.9997 45.4083 23.4226C45.0504 23.8416 44.5676 24.1494 43.9597 24.3461ZM43.6368 23.3801C44.0056 23.2568 44.3056 23.0541 44.5367 22.7718C44.7707 22.4886 44.9208 22.1635 44.9868 21.7964C45.0558 21.4284 45.0267 21.0541 44.8996 20.6736C44.7753 20.3018 44.5789 19.9916 44.3103 19.7429C44.0436 19.4904 43.7351 19.3218 43.3846 19.2371C43.0371 19.1515 42.6789 19.1704 42.3101 19.2936C42.032 19.3866 41.7915 19.5288 41.5886 19.7202C41.3848 19.9088 41.2239 20.1285 41.106 20.3794C40.9911 20.6294 40.9235 20.8944 40.9032 21.1746C40.8819 21.4518 40.9163 21.725 41.0063 21.9943C41.1257 22.3515 41.3206 22.6573 41.5912 22.9118C41.8647 23.1653 42.1796 23.3383 42.5359 23.4308C42.8951 23.5222 43.2621 23.5053 43.6368 23.3801Z" fill="#B9B9B9"/>
<path d="M28.3799 34.5876L23.7781 26.3912L23.7166 26.3499L20.9919 30.4091L20.1462 29.8415L23.5315 24.7982L24.4233 25.3968L29.0508 33.5882L28.3799 34.5876Z" fill="#B9B9B9"/>
<path d="M23.4443 50.8287C23.4443 51.4645 23.3316 52.0263 23.1063 52.5139C22.8779 52.9985 22.5646 53.3766 22.1665 53.6482C21.7653 53.9198 21.3085 54.054 20.7961 54.0509C20.3949 54.054 20.0245 53.9753 19.685 53.8148C19.3424 53.6543 19.0569 53.4352 18.8285 53.1574C18.597 52.8766 18.4504 52.5633 18.3887 52.2176L18.3331 52.2176C18.2159 52.6713 17.9612 53.0324 17.5692 53.3009C17.1742 53.5695 16.7251 53.7022 16.222 53.6991C15.7405 53.7022 15.31 53.5803 14.9304 53.3334C14.5507 53.0864 14.2513 52.7469 14.0322 52.3148C13.8131 51.8796 13.7035 51.3843 13.7035 50.8287C13.7035 50.2793 13.8131 49.7886 14.0322 49.3565C14.2513 48.9244 14.5507 48.5849 14.9303 48.338C15.31 48.088 15.7405 47.9614 16.222 47.9583C16.7251 47.9614 17.1742 48.0988 17.5692 48.3704C17.9612 48.6389 18.2159 48.9954 18.3331 49.4398L18.3887 49.4398C18.4504 49.0972 18.597 48.7886 18.8285 48.5139C19.0569 48.2392 19.3424 48.0201 19.685 47.8565C20.0245 47.6929 20.3949 47.6096 20.7961 47.6065C21.3085 47.6096 21.7652 47.7485 22.1665 48.0232C22.5646 48.2948 22.8779 48.6728 23.1063 49.1574C23.3316 49.6389 23.4443 50.196 23.4443 50.8287ZM22.4257 50.8287C22.4257 50.3997 22.3563 50.0293 22.2174 49.7176C22.0785 49.4059 21.8825 49.1651 21.6294 48.9954C21.3764 48.8256 21.0801 48.7392 20.7406 48.7361C20.3825 48.7392 20.0662 48.8318 19.7915 49.0139C19.5168 49.196 19.3007 49.4445 19.1433 49.7593C18.9859 50.071 18.9072 50.4275 18.9072 50.8287C18.9072 51.233 18.9859 51.5942 19.1433 51.9121C19.3007 52.2269 19.5168 52.4753 19.7915 52.6574C20.0662 52.8364 20.3825 52.9244 20.7406 52.9213C21.0801 52.9244 21.3764 52.8426 21.6294 52.6759C21.8825 52.5062 22.0785 52.2639 22.2174 51.9491C22.3563 51.6343 22.4257 51.2608 22.4257 50.8287ZM17.9257 50.8287C17.9257 50.4892 17.8578 50.1883 17.722 49.9259C17.5862 49.6605 17.3964 49.4522 17.1526 49.3009C16.9088 49.1497 16.6233 49.0725 16.2961 49.0695C15.9751 49.0725 15.6958 49.1482 15.4581 49.2963C15.2174 49.4445 15.0322 49.6497 14.9026 49.912C14.7699 50.1744 14.7035 50.48 14.7035 50.8287C14.7035 51.1837 14.7699 51.4938 14.9026 51.7593C15.0322 52.0247 15.2174 52.23 15.4581 52.375C15.6958 52.5201 15.9751 52.5911 16.2961 52.588C16.6233 52.5911 16.9088 52.5185 17.1526 52.3704C17.3964 52.2192 17.5862 52.0108 17.722 51.7454C17.8578 51.48 17.9257 51.1744 17.9257 50.8287Z" fill="#B9B9B9"/>
<path d="M18.7457 70.5228C18.5682 70.1768 18.4537 69.7978 18.402 69.386C18.3504 68.9741 18.3993 68.5481 18.5487 68.1077C18.6954 67.6688 18.9794 67.2295 19.4008 66.7898C19.8222 66.3501 20.4185 65.9286 21.1898 65.5253C21.9365 65.1349 22.637 64.8592 23.2912 64.6983C23.9413 64.5361 24.5339 64.4839 25.0693 64.5419C25.6031 64.5971 26.0713 64.7598 26.4738 65.03C26.8748 65.2975 27.1991 65.6678 27.4465 66.141C27.6924 66.6114 27.8189 67.0799 27.826 67.5464C27.8289 68.0116 27.725 68.449 27.5143 68.8587C27.2994 69.2671 26.9876 69.6199 26.5788 69.9172L26.0554 68.9162C26.3939 68.6243 26.6189 68.2785 26.7304 67.8789C26.8377 67.478 26.7755 67.056 26.5439 66.6129C26.2049 65.9647 25.6544 65.6012 24.8923 65.5225C24.1288 65.4411 23.2301 65.6706 22.1962 66.2112L22.2306 66.2768C22.5404 66.3098 22.8338 66.3881 23.1107 66.5114C23.3877 66.6348 23.6385 66.8015 23.8632 67.0114C24.0879 67.2213 24.276 67.4712 24.4276 67.7611C24.6793 68.2425 24.7912 68.7465 24.7635 69.2729C24.7316 69.7981 24.5693 70.2904 24.2767 70.7499C23.9799 71.2081 23.5607 71.5788 23.0191 71.8619C22.5049 72.1308 21.9744 72.2618 21.4276 72.2552C20.8766 72.2472 20.3646 72.1005 19.8914 71.815C19.4168 71.5268 19.0349 71.096 18.7457 70.5228ZM19.6483 70.0509C19.8284 70.3956 20.0769 70.661 20.3936 70.8471C20.7062 71.032 21.0497 71.1293 21.424 71.1391C21.7941 71.1476 22.1542 71.0603 22.5043 70.8773C22.8544 70.6942 23.133 70.451 23.3401 70.1477C23.5431 69.8431 23.6593 69.5124 23.6887 69.1557C23.714 68.7977 23.6365 68.4464 23.4563 68.1018C23.3205 67.8419 23.1433 67.6263 22.9249 67.4549C22.7037 67.285 22.4606 67.1631 22.1956 67.0892C21.9264 67.014 21.6532 66.9879 21.3762 67.0108C21.0964 67.0352 20.832 67.1125 20.5831 67.2426C20.2549 67.4142 19.9887 67.6544 19.7844 67.9632C19.5787 68.2692 19.4592 68.6069 19.4259 68.9761C19.3911 69.3426 19.4652 69.7008 19.6483 70.0509Z" fill="#B9B9B9"/>
<path d="M39.7 87.73L43.5868 79.0818L44.634 79.5524L41.2407 87.1027L41.2913 87.1255L44.0328 86.6725L43.5545 87.7366L40.7472 88.2007L39.7 87.73Z" fill="#B9B9B9"/>
<path d="M38.3319 76.5779C38.9681 76.8639 39.4322 77.2806 39.7242 77.828C40.0149 78.3783 40.1299 79.0373 40.069 79.8052C40.0069 80.5758 39.7645 81.4313 39.3419 82.3716C38.9219 83.3062 38.445 84.0512 37.9112 84.6064C37.3733 85.1633 36.8021 85.5157 36.1976 85.6636C35.589 85.813 34.9694 85.7461 34.3388 85.4626C33.7082 85.1792 33.2482 84.761 32.9587 84.2079C32.6652 83.6564 32.5495 82.9953 32.6116 82.2247C32.6696 81.4555 32.9087 80.6037 33.3287 79.669C33.7513 78.7288 34.2301 77.9796 34.7652 77.4215C35.299 76.8662 35.8682 76.5146 36.4727 76.3667C37.0759 76.2216 37.6956 76.292 38.3319 76.5779ZM37.9143 77.5069C37.2837 77.2235 36.6573 77.3074 36.0349 77.7586C35.4125 78.2098 34.8483 78.9984 34.3422 80.1245C34.0056 80.8733 33.7993 81.547 33.7232 82.1456C33.6442 82.7429 33.692 83.2465 33.8664 83.6565C34.038 84.0653 34.3321 84.3633 34.7487 84.5505C35.3737 84.8314 36.0007 84.7427 36.6297 84.2843C37.2574 83.8287 37.8237 83.0393 38.3285 81.9161C38.665 81.1672 38.8722 80.4956 38.9498 79.9011C39.0275 79.3066 38.9799 78.8064 38.8071 78.4005C38.6314 77.9933 38.3338 77.6955 37.9143 77.5069Z" fill="#B9B9B9"/>
</svg>
